# xmcd
#
# Track frame offsets: 
#        150
#        13899
#        22149
#        32033
#        43970
#        55234
#        65801
#        76301
#        87610
#        101878
#        114771
#        123805
#        134560
#        147713
#        157467
#        167906
#        176242
#        187886
#        201302
#        214121
#        224947
#        247714
#        259986
#        271675
#        282788
#        293543
#        305691
#        316171
#        327441
#
# Disc length: 4502 seconds
#
# Revision: 1
# Processed by: cddbd v1.5.2PL0 Copyright (c) Steve Scherf et al.
# Submitted via: ExactAudioCopyFreeDBPlugin 1.0
#
DISCID=d011941d
DTITLE=The "5" Royales - Soul and Swagger:  The Complete "5" Royales (19
DTITLE=51-1967)
DYEAR=2014
DGENRE=Rhythm and Blues
TTITLE0=Help Me Somebody
TTITLE1=Talk About My Woman
TTITLE2=Talk About My Woman Pt. 2
TTITLE3=Goof Ball
TTITLE4=Catch That Teardrop
TTITLE5=I Want It Like That
TTITLE6=What's In The Heart
TTITLE7=She Did Me Wrong
TTITLE8=Show Me
TTITLE9=Think (Royal Abbit and Lowman Pauling aka El Pauling and The Royal
TTITLE9=ton)
TTITLE10=I'm Standing In The Shadows
TTITLE11=Doin' Everything
TTITLE12=Baby, Don't Do It
TTITLE13=There's Somebody Over There
TTITLE14=Baby, Don't Do It
TTITLE15=I Like It Like That
TTITLE16=Never Turn Your Back
TTITLE17=Faith
TTITLE18=Time For Everything (El Pauling And The Exciters)
TTITLE19=It Won't Be Long (aka Soul House) (El Pauling And The Exciter
TTITLE19=s)
TTITLE20=Mr. Moon Man Pt. 1 and Pt. 2 (El Pauling And The Exciters)
TTITLE21=I'm On The Right Road Now
TTITLE22=Mr. Moon Man (El Pauling and The 5 Royales)
TTITLE23=Help Yourself
TTITLE24=Roll With The Punch
TTITLE25=I'm Not Ashamed (King Richard and The Poor Boys)
TTITLE26=Didn't We Fool Them (King Richard and The Poor Boys)
TTITLE27=Washboard (The Poor Boys)
TTITLE28=(I'm) Gonna Spend My Money (The Poor Boys)
EXTD=
EXTT0=
EXTT1=
EXTT2=
EXTT3=
EXTT4=
EXTT5=
EXTT6=
EXTT7=
EXTT8=
EXTT9=
EXTT10=
EXTT11=
EXTT12=
EXTT13=
EXTT14=
EXTT15=
EXTT16=
EXTT17=
EXTT18=
EXTT19=
EXTT20=
EXTT21=
EXTT22=
EXTT23=
EXTT24=
EXTT25=
EXTT26=
EXTT27=
EXTT28=
PLAYORDER=
